# xmcd
#
# Track frame offsets: 
#        150
#        13022
#        27044
#        41629
#        58097
#        73674
#        90228
#        105921
#        121188
#        138801
#        151939
#        168188
#        185440
#        198847
#        214769
#        230803
#
# Disc length: 3276 seconds
#
# Revision: 0
# Processed by: cddbd v1.5.2PL0 Copyright (c) Steve Scherf et al.
# Submitted via: ExactAudioCopy v0.99pb5
#
DISCID=c70cca10
DTITLE=สุนารี - สุนารี คลาสสิคฮิต d1
DYEAR=2008
DGENRE=Country
TTITLE0=เรือนแพ
TTITLE1=อาลัยรัก
TTITLE2=คนจะรักกัน
TTITLE3=รอ
TTITLE4=ใครหนอ
TTITLE5=แรมพิศวาส
TTITLE6=คิดถึงฉันบ้างคืนนี้
TTITLE7=บ้านเรา
TTITLE8=ฤทธิ์กามเทพ
TTITLE9=อ้อมอกแม่
TTITLE10=หนีรัก
TTITLE11=ไฟเสน่หา
TTITLE12=ฟ้ามิอาจกั้น
TTITLE13=หัวหินสิ้นมนต์รัก
TTITLE14=วังบัวบาน
TTITLE15=บางปะกง
EXTD=
EXTT0=
EXTT1=
EXTT2=
EXTT3=
EXTT4=
EXTT5=
EXTT6=
EXTT7=
EXTT8=
EXTT9=
EXTT10=
EXTT11=
EXTT12=
EXTT13=
EXTT14=
EXTT15=
PLAYORDER=
